HIERARCHY
ROOT Hips
{
	OFFSET 0.000000 103.266502 0.000000
	CHANNELS 6 Xposition Yposition Zposition Xrotation Yrotation Zrotation 
	JOINT Spine
	{
		OFFSET -0.002400 12.777504 0.315300
		CHANNELS 3 Xrotation Yrotation Zrotation
		JOINT Spine1
		{
			OFFSET -0.002067 5.816869 0.032633
			CHANNELS 3 Xrotation Yrotation Zrotation
			JOINT Spine1_split
			{
				OFFSET -0.002067 5.816869 0.032633
				CHANNELS 3 Xrotation Yrotation Zrotation
				JOINT Spine2
				{
					OFFSET -0.002067 5.816869 0.032633
					CHANNELS 3 Xrotation Yrotation Zrotation
					JOINT Neck
					{
						OFFSET -0.003700 21.199493 -0.826900
						CHANNELS 3 Xrotation Yrotation Zrotation
						JOINT Head
						{
							OFFSET 0.000000 20.442200 4.834800
							CHANNELS 3 Xrotation Yrotation Zrotation
							JOINT HeadTop_End
							{
								OFFSET 0.000000 34.668396 4.968400
								CHANNELS 3 Xrotation Yrotation Zrotation
								End Site
								{
									OFFSET 0.000000 0.000000 0.000000
								}
							}
						}
					}
					JOINT LeftShoulder
					{
						OFFSET 3.288150 8.794197 -1.372250
						CHANNELS 3 Xrotation Yrotation Zrotation
						JOINT LeftShoulder_split
						{
							OFFSET 3.288150 8.794197 -1.372250
							CHANNELS 3 Xrotation Yrotation Zrotation
							JOINT LeftArm
							{
								OFFSET 11.953299 -2.279007 -0.146200
								CHANNELS 3 Xrotation Yrotation Zrotation
								JOINT LeftForeArm
								{
									OFFSET 18.448900 0.000000 0.000000
									CHANNELS 3 Xrotation Yrotation Zrotation
									JOINT LeftHand
									{
										OFFSET 29.527798 0.000000 0.000000
										CHANNELS 3 Xrotation Yrotation Zrotation
										JOINT LeftHandThumb1
										{
											OFFSET 10.739754 -2.369614 9.225399
											CHANNELS 3 Xrotation Yrotation Zrotation
											JOINT LeftHandThumb2
											{
												OFFSET 4.926170 -2.844131 2.844125
												CHANNELS 3 Xrotation Yrotation Zrotation
												JOINT LeftHandThumb3
												{
													OFFSET 4.614891 -2.664413 2.664409
													CHANNELS 3 Xrotation Yrotation Zrotation
													JOINT LeftHandThumb4
													{
														OFFSET 4.432465 -2.559082 2.559083
														CHANNELS 3 Xrotation Yrotation Zrotation
														End Site
														{
															OFFSET 0.000000 0.000000 0.000000
														}
													}
												}
											}
										}
										JOINT LeftHandIndex1
										{
											OFFSET 26.467674 0.187653 6.405298
											CHANNELS 3 Xrotation Yrotation Zrotation
											JOINT LeftHandIndex2
											{
												OFFSET 8.792900 0.000000 0.000000
												CHANNELS 3 Xrotation Yrotation Zrotation
												JOINT LeftHandIndex3
												{
													OFFSET 10.075203 0.000000 0.000000
													CHANNELS 3 Xrotation Yrotation Zrotation
													End Site
													{
														OFFSET 0.000000 0.000000 0.000000
													}
												}
											}
										}
										JOINT LeftHandMiddle1
										{
											OFFSET 25.764404 0.000000 0.000000
											CHANNELS 3 Xrotation Yrotation Zrotation
											JOINT LeftHandMiddle2
											{
												OFFSET 9.393974 0.000000 0.000000
												CHANNELS 3 Xrotation Yrotation Zrotation
												JOINT LeftHandMiddle3
												{
													OFFSET 10.771950 0.000000 0.000000
													CHANNELS 3 Xrotation Yrotation Zrotation
													End Site
													{
														OFFSET 0.000000 0.000000 0.000000
													}
												}
											}
										}
										JOINT LeftHandRing1
										{
											OFFSET 24.660927 0.144547 -6.225808
											CHANNELS 3 Xrotation Yrotation Zrotation
											JOINT LeftHandRing2
											{
												OFFSET 9.393799 0.000000 0.000000
												CHANNELS 3 Xrotation Yrotation Zrotation
												JOINT LeftHandRing3
												{
													OFFSET 9.928497 0.000000 0.000000
													CHANNELS 3 Xrotation Yrotation Zrotation
													End Site
													{
														OFFSET 0.000000 0.000000 0.000000
													}
												}
											}
										}
										JOINT LeftHandPinky1
										{
											OFFSET 23.655350 0.125290 -12.815412
											CHANNELS 3 Xrotation Yrotation Zrotation
											JOINT LeftHandPinky2
											{
												OFFSET 8.425102 0.000000 0.000000
												CHANNELS 3 Xrotation Yrotation Zrotation
												JOINT LeftHandPinky3
												{
													OFFSET 8.147003 0.000000 0.000000
													CHANNELS 3 Xrotation Yrotation Zrotation
													End Site
													{
														OFFSET 0.000000 0.000000 0.000000
													}
												}
											}
										}
									}
								}
							}
						}
					}
					JOINT RightShoulder
					{
						OFFSET -3.249400 8.794197 -1.372250
						CHANNELS 3 Xrotation Yrotation Zrotation
						JOINT RightShoulder_split
						{
							OFFSET -3.249400 8.794197 -1.372250
							CHANNELS 3 Xrotation Yrotation Zrotation
							JOINT RightArm
							{
								OFFSET -11.953299 -2.279007 -0.146200
								CHANNELS 3 Xrotation Yrotation Zrotation
								JOINT RightForeArm
								{
									OFFSET -18.448900 0.000000 0.000000
									CHANNELS 3 Xrotation Yrotation Zrotation
									JOINT RightHand
									{
										OFFSET -29.527802 0.000000 0.000000
										CHANNELS 3 Xrotation Yrotation Zrotation
										JOINT RightHandThumb1
										{
											OFFSET -10.739754 -2.369614 9.225399
											CHANNELS 3 Xrotation Yrotation Zrotation
											JOINT RightHandThumb2
											{
												OFFSET -4.926170 -2.844131 2.844125
												CHANNELS 3 Xrotation Yrotation Zrotation
												JOINT RightHandThumb3
												{
													OFFSET -4.614891 -2.664413 2.664409
													CHANNELS 3 Xrotation Yrotation Zrotation
													JOINT RightHandThumb4
													{
														OFFSET -4.432465 -2.559082 2.559083
														CHANNELS 3 Xrotation Yrotation Zrotation
														End Site
														{
															OFFSET 0.000000 0.000000 0.000000
														}
													}
												}
											}
										}
										JOINT RightHandIndex1
										{
											OFFSET -26.467674 0.187653 6.405298
											CHANNELS 3 Xrotation Yrotation Zrotation
											JOINT RightHandIndex2
											{
												OFFSET -8.792900 0.000000 0.000000
												CHANNELS 3 Xrotation Yrotation Zrotation
												JOINT RightHandIndex3
												{
													OFFSET -10.075203 0.000000 0.000000
													CHANNELS 3 Xrotation Yrotation Zrotation
													End Site
													{
														OFFSET 0.000000 0.000000 0.000000
													}
												}
											}
										}
										JOINT RightHandMiddle1
										{
											OFFSET -25.764404 0.000000 0.000000
											CHANNELS 3 Xrotation Yrotation Zrotation
											JOINT RightHandMiddle2
											{
												OFFSET -9.393974 0.000000 0.000000
												CHANNELS 3 Xrotation Yrotation Zrotation
												JOINT RightHandMiddle3
												{
													OFFSET -10.771950 0.000000 0.000000
													CHANNELS 3 Xrotation Yrotation Zrotation
													End Site
													{
														OFFSET 0.000000 0.000000 0.000000
													}
												}
											}
										}
										JOINT RightHandRing1
										{
											OFFSET -24.660927 0.144547 -6.225808
											CHANNELS 3 Xrotation Yrotation Zrotation
											JOINT RightHandRing2
											{
												OFFSET -9.393799 0.000000 0.000000
												CHANNELS 3 Xrotation Yrotation Zrotation
												JOINT RightHandRing3
												{
													OFFSET -9.928497 0.000000 0.000000
													CHANNELS 3 Xrotation Yrotation Zrotation
													End Site
													{
														OFFSET 0.000000 0.000000 0.000000
													}
												}
											}
										}
										JOINT RightHandPinky1
										{
											OFFSET -23.655350 0.125290 -12.815412
											CHANNELS 3 Xrotation Yrotation Zrotation
											JOINT RightHandPinky2
											{
												OFFSET -8.425102 0.000000 0.000000
												CHANNELS 3 Xrotation Yrotation Zrotation
												JOINT RightHandPinky3
												{
													OFFSET -8.147003 0.000000 0.000000
													CHANNELS 3 Xrotation Yrotation Zrotation
													End Site
													{
														OFFSET 0.000000 0.000000 0.000000
													}
												}
											}
										}
									}
								}
							}
						}
					}
				}
			}
		}
	}
	JOINT LeftUpLeg
	{
		OFFSET 11.394100 -6.187798 -0.413800
		CHANNELS 3 Xrotation Yrotation Zrotation
		JOINT LeftLeg
		{
			OFFSET 0.430247 -32.302673 3.732800
			CHANNELS 3 Xrotation Yrotation Zrotation
			JOINT LeftFoot
			{
				OFFSET -0.430247 -48.264931 -6.423300
				CHANNELS 3 Xrotation Yrotation Zrotation
				JOINT LeftToeBase
				{
					OFFSET 4.230900 -16.068199 23.438400
					CHANNELS 3 Xrotation Yrotation Zrotation
					JOINT LeftToe_End
					{
						OFFSET 4.510700 0.695400 19.974600
						CHANNELS 3 Xrotation Yrotation Zrotation
						End Site
						{
							OFFSET 0.000000 0.000000 0.000000
						}
					}
				}
			}
		}
	}
	JOINT RightUpLeg
	{
		OFFSET -11.333700 -6.187798 -0.413800
		CHANNELS 3 Xrotation Yrotation Zrotation
		JOINT RightLeg
		{
			OFFSET -0.430392 -32.302628 3.733000
			CHANNELS 3 Xrotation Yrotation Zrotation
			JOINT RightFoot
			{
				OFFSET 0.430392 -48.264973 -6.423500
				CHANNELS 3 Xrotation Yrotation Zrotation
				JOINT RightToeBase
				{
					OFFSET -4.230900 -16.068199 23.438400
					CHANNELS 3 Xrotation Yrotation Zrotation
					JOINT RightToe_End
					{
						OFFSET -4.510700 0.695400 19.974600
						CHANNELS 3 Xrotation Yrotation Zrotation
						End Site
						{
							OFFSET 0.000000 0.000000 0.000000
						}
					}
				}
			}
		}
	}
}
MOTION
Frames: 4
Frame Time: 0.016667
0.548214 101.033333 -1.047389 2.912639 -28.992726 1.099267 7.836534 -0.348189 -2.592279 1.099249 -0.880572 2.383463 0.000000 0.000000 0.000000 1.108682 -0.590442 2.446367 -3.841835 18.019064 -6.496488 -6.332744 13.021565 0.301528 -0.000000 -0.000000 0.000000 -0.057387 -8.759442 -0.061008 0.000000 0.000000 0.000000 -55.250828 0.329476 -41.449358 11.584272 -65.827307 13.005397 -50.191030 12.352920 4.610823 17.551621 -5.699195 -12.932303 10.850459 26.127712 8.644847 20.927000 51.115889 0.218770 0.000002 0.000003 -0.000001 13.980911 1.201540 -55.004381 0.370820 1.161718 -65.441887 0.000001 -0.000000 0.000002 7.504731 1.174478 -63.778510 1.807803 1.475668 -64.567937 0.000001 0.000001 0.000001 8.574333 2.179142 -75.148999 -0.207674 1.009297 -57.855042 -0.000001 -0.000000 0.000003 10.030088 13.637058 -84.750264 0.877094 0.062314 -64.595531 -0.000000 0.000000 0.000003 4.849304 7.760144 5.560457 0.000000 0.000000 0.000000 -0.933458 -2.176906 61.845642 11.299284 18.943569 -3.987591 -0.459217 6.620096 5.830226 15.788387 -2.734511 -17.205807 -2.198363 -31.113554 7.361230 -6.564269 -4.136658 2.406517 0.000001 -0.000003 -0.000000 2.382182 -3.656536 8.488154 -2.150639 -2.471231 18.673305 0.000001 -0.000000 0.000001 -1.979708 -5.703091 13.662271 0.280390 -5.098938 26.988038 -0.000001 -0.000000 -0.000000 -3.257615 -8.560612 11.770077 4.036124 -4.060206 33.262967 0.000000 -0.000000 0.000001 -6.474169 -11.347977 23.260698 10.715056 -2.557675 34.822644 -0.000000 -0.000000 0.000002 -17.581491 18.040145 11.712034 15.588351 13.145600 -1.046504 -0.205511 -4.070901 -5.305346 -0.142080 0.007489 -0.310362 -0.000000 -0.000000 0.000000 -8.755989 -1.426516 -9.027432 10.745402 9.473008 0.841584 -5.318247 -0.876887 7.447054 -1.288151 -0.016833 0.151287 -0.000000 0.000001 0.000000 
0.352740 100.678635 -0.835356 3.089555 -27.955093 1.230175 7.586096 -0.106855 -2.875638 1.179885 -0.587876 2.428846 0.000000 0.000000 0.000000 1.179491 -0.331355 2.447599 -4.361381 17.503038 -6.286971 -6.658289 12.494605 0.882709 -0.000000 0.000000 0.000000 -0.156522 -7.613170 -0.517557 0.000000 0.000000 0.000000 -54.992851 2.359939 -39.858853 14.183560 -68.506545 15.203532 -50.021088 11.836331 3.695125 17.551621 -5.699194 -12.932302 10.850457 26.127707 8.644851 20.927000 51.115889 0.218772 -0.000000 0.000000 -0.000004 13.980908 1.201540 -55.004381 0.370820 1.161719 -65.441880 0.000001 -0.000000 -0.000001 7.504728 1.174478 -63.778510 1.807801 1.475670 -64.567937 0.000001 0.000001 0.000001 8.574328 2.179142 -75.149006 -0.207675 1.009298 -57.855042 0.000000 0.000000 -0.000002 10.030086 13.637056 -84.750264 0.877094 0.062314 -64.595531 -0.000000 0.000000 0.000002 4.812136 8.119671 5.688571 0.000000 0.000000 0.000000 -0.408747 -2.451837 61.988488 12.244015 18.822502 -4.559216 -0.536302 7.009255 5.751486 15.835307 -2.735885 -17.119538 -2.264951 -31.017661 7.352482 -6.532635 -4.205992 2.392067 0.000001 -0.000002 -0.000001 2.381965 -3.658123 8.566177 -2.150601 -2.472777 18.751246 0.000001 -0.000000 0.000001 -1.979305 -5.704402 13.740293 0.282756 -5.099364 27.066137 0.000000 0.000001 -0.000001 -3.258064 -8.562270 11.847967 4.035931 -4.062106 33.341148 0.000000 -0.000000 0.000004 -6.485092 -11.390090 23.332701 10.716260 -2.558937 34.900911 -0.000000 -0.000000 0.000000 -18.875100 17.400851 11.898447 17.386971 12.318229 -1.127259 -0.907749 -3.850831 -5.428119 -0.142069 0.007487 -0.310366 -0.000000 0.000000 -0.000000 -9.757165 -1.286835 -9.119366 12.985319 8.968770 0.801529 -6.598309 -1.363047 7.305412 -1.288153 -0.016826 0.151285 -0.000000 -0.000000 0.000000 
0.169188 100.337288 -0.601211 3.262418 -26.754087 1.311001 7.263039 0.194900 -3.053119 1.305101 -0.239092 2.460833 0.000000 0.000000 0.000000 1.292171 -0.018789 2.426595 -4.964535 16.791071 -6.023531 -6.880097 11.820295 1.376510 -0.000000 -0.000000 0.000000 -0.257672 -6.543723 -1.038120 0.000000 0.000000 0.000000 -54.949610 4.638172 -38.362656 19.162383 -71.200863 19.813530 -49.825359 10.829548 2.949340 17.551621 -5.699189 -12.932303 10.850462 26.127709 8.644844 20.927005 51.115879 0.218772 -0.000003 -0.000001 0.000003 13.980907 1.201545 -55.004381 0.370816 1.161719 -65.441880 0.000000 0.000003 0.000003 7.504730 1.174480 -63.778510 1.807804 1.475668 -64.567937 0.000001 0.000000 0.000002 8.574330 2.179145 -75.149006 -0.207674 1.009298 -57.855042 0.000001 -0.000000 -0.000003 10.030088 13.637060 -84.750264 0.877094 0.062314 -64.595531 -0.000000 -0.000000 0.000000 4.776425 8.473871 5.863059 0.000000 0.000000 0.000000 0.334842 -2.740976 62.151183 13.457522 18.694470 -5.471676 -0.738288 7.226691 5.672243 15.960340 -2.740603 -16.876655 -2.449928 -30.750765 7.328903 -6.440394 -4.396676 2.350416 0.000000 -0.000000 -0.000001 2.381017 -3.658315 8.783383 -2.150653 -2.472924 18.968439 0.000000 0.000000 -0.000002 -1.978069 -5.708027 13.957467 0.282840 -5.100867 27.283360 -0.000001 0.000000 0.000001 -3.259167 -8.562337 12.064998 4.035364 -4.062292 33.558328 -0.000000 -0.000000 0.000001 -6.514890 -11.507474 23.533048 10.719500 -2.558905 35.118207 -0.000000 0.000000 -0.000003 -20.128513 16.775698 12.056416 19.049411 11.316210 -1.219344 -1.550926 -3.623963 -5.467433 -0.142082 0.007491 -0.310364 -0.000000 0.000000 -0.000000 -10.518129 -1.225124 -9.150907 14.902385 8.811964 0.786523 -7.789459 -2.321633 7.104905 -1.288160 -0.016846 0.151289 0.000000 -0.000000 0.000000 
-0.003092 100.010307 -0.347330 3.426033 -25.392859 1.348051 6.887218 0.541985 -3.139559 1.460488 0.152813 2.478274 0.000000 0.000000 0.000000 1.433639 0.334550 2.384510 -5.614538 15.907833 -5.715405 -7.022093 11.021187 1.798167 0.000000 -0.000000 0.000000 -0.348969 -5.538395 -1.589100 0.000000 0.000000 0.000000 -55.141582 7.041870 -36.915448 26.186433 -73.767068 26.509742 -49.617872 9.602803 2.265842 17.551624 -5.699194 -12.932304 10.850458 26.127712 8.644843 20.927000 51.115886 0.218771 -0.000000 -0.000002 -0.000003 13.980910 1.201542 -55.004381 0.370819 1.161719 -65.441873 0.000000 0.000002 -0.000001 7.504731 1.174480 -63.778517 1.807804 1.475669 -64.567937 0.000002 0.000001 -0.000001 8.574332 2.179143 -75.148999 -0.207673 1.009298 -57.855042 0.000000 0.000001 -0.000004 10.030088 13.637059 -84.750264 0.877094 0.062314 -64.595531 0.000000 -0.000001 0.000001 4.736008 8.868321 6.075512 0.000000 0.000000 0.000000 1.246717 -3.107692 62.321241 14.852972 18.537191 -6.632870 -1.106521 7.329461 5.646173 16.151254 -2.746681 -16.506573 -2.730703 -30.343836 7.294836 -6.299987 -4.687448 2.287427 0.000001 0.000000 -0.000000 2.379602 -3.658622 9.114427 -2.150758 -2.473106 19.299591 -0.000000 0.000000 0.000001 -1.976186 -5.708184 14.288698 0.283035 -5.103084 27.614468 0.000000 -0.000000 0.000001 -3.260867 -8.562459 12.395856 4.034545 -4.062545 33.889377 -0.000000 -0.000001 0.000000 -6.558736 -11.686802 23.838373 10.719592 -2.559026 35.449303 -0.000001 0.000000 -0.000004 -21.335228 16.193812 12.238419 20.632946 11.617023 -1.219822 -2.167423 -4.904130 -5.639621 -0.142082 0.007495 -0.310364 0.000000 0.000000 0.000000 -11.068231 -1.233428 -9.152072 16.561324 8.356010 0.745627 -8.912474 -3.115437 6.987837 -1.253178 -0.016762 0.151295 -0.000000 0.000000 0.000000 
